<svg width="240" height="50" viewBox="0 0 240 50" fill="none" xmlns="http://www.w3.org/2000/svg">
<rect width="240" height="50" rx="3" fill="#FB565A"/>
<path d="M59.5547 25.5703L61.8359 19.625H64.0312L60.0703 29.0625L59.7109 29.7734C59.1901 30.7005 58.3463 31.1641 57.1797 31.1641L56.3672 31.1172L56.3828 29.5547C56.5078 29.5755 56.7291 29.5859 57.0469 29.5859C57.6094 29.5859 58.0052 29.3464 58.2344 28.8672L58.6406 27.9062L54.75 19.625H56.9062L59.5547 25.5703ZM71.2265 22.7266C71.2265 22.2161 71.0338 21.8099 70.6484 21.5078C70.263 21.2057 69.7396 21.0547 69.0781 21.0547C68.5104 21.0547 68.0364 21.2057 67.6562 21.5078C67.276 21.8047 67.0859 22.1901 67.0859 22.6641H65.1172C65.1172 22.0443 65.289 21.4922 65.6328 21.0078C65.9765 20.5234 66.4531 20.1484 67.0625 19.8828C67.6719 19.612 68.3437 19.4766 69.0781 19.4766C70.3802 19.4766 71.3906 19.7604 72.1094 20.3281C72.8333 20.8958 73.1953 21.6901 73.1953 22.7109C73.1953 23.2266 73.039 23.7005 72.7265 24.1328C72.414 24.5651 71.9765 24.9062 71.414 25.1562C72.0495 25.375 72.5338 25.7083 72.8672 26.1562C73.2057 26.599 73.375 27.151 73.375 27.8125C73.375 28.8333 72.9844 29.6458 72.2031 30.25C71.4219 30.849 70.3802 31.1484 69.0781 31.1484C68.276 31.1484 67.5495 31.0052 66.8984 30.7187C66.2526 30.4323 65.7656 30.0417 65.4375 29.5469C65.1146 29.0521 64.9531 28.4844 64.9531 27.8437H66.9219C66.9219 28.3333 67.125 28.7474 67.5312 29.0859C67.9375 29.4193 68.4531 29.5859 69.0781 29.5859C69.776 29.5859 70.3359 29.4219 70.7578 29.0937C71.1849 28.7656 71.3984 28.3385 71.3984 27.8125C71.3984 27.1719 71.2109 26.7083 70.8359 26.4219C70.4661 26.1302 69.9219 25.9844 69.2031 25.9844H67.8672V24.4219H69.1328C70.5286 24.4219 71.2265 23.8568 71.2265 22.7266ZM84.2422 31H82.2734V25.9453H77.1875V31H75.2109V19.625H77.1875V24.3594H82.2734V19.625H84.2422V31ZM93.0937 28.3516H88.6875L87.7656 31H85.7109L90.0078 19.625H91.7812L96.0859 31H94.0234L93.0937 28.3516ZM89.2422 26.7578H92.5391L90.8906 22.0391L89.2422 26.7578ZM104.664 21.2187H101.117V31H99.1562V21.2187H95.6406V19.625H104.664V21.2187ZM108.234 23.9766H110.562C111.396 23.9766 112.122 24.1198 112.742 24.4062C113.362 24.6927 113.833 25.099 114.156 25.625C114.479 26.151 114.641 26.7604 114.641 27.4531C114.641 28.5156 114.279 29.3698 113.555 30.0156C112.836 30.6615 111.854 30.9896 110.609 31H106.258V19.625H108.234V23.9766ZM108.234 25.5625V29.4219H110.555C111.221 29.4219 111.74 29.2422 112.109 28.8828C112.484 28.5182 112.672 28.0365 112.672 27.4375C112.672 26.8646 112.49 26.4115 112.125 26.0781C111.76 25.7448 111.255 25.5729 110.609 25.5625H108.234ZM127.523 21.2187H122.281V23.9766H124.609C125.443 23.9766 126.169 24.1198 126.789 24.4062C127.409 24.6927 127.88 25.099 128.203 25.625C128.526 26.151 128.688 26.7604 128.688 27.4531C128.688 28.5156 128.326 29.3698 127.602 30.0156C126.883 30.6615 125.901 30.9896 124.656 31H120.305V19.625H127.523V21.2187ZM122.281 25.5625V29.4219H124.602C125.268 29.4219 125.786 29.2422 126.156 28.8828C126.531 28.5182 126.719 28.0365 126.719 27.4375C126.719 26.8646 126.536 26.4115 126.172 26.0781C125.807 25.7448 125.302 25.5729 124.656 25.5625H122.281ZM139.477 25.6094C139.477 26.724 139.284 27.7031 138.898 28.5469C138.513 29.3854 137.961 30.0312 137.242 30.4844C136.529 30.9323 135.706 31.1563 134.773 31.1563C133.852 31.1563 133.029 30.9323 132.305 30.4844C131.586 30.0312 131.029 29.388 130.633 28.5547C130.242 27.7214 130.044 26.7604 130.039 25.6719V25.0312C130.039 23.9219 130.234 22.9427 130.625 22.0937C131.021 21.2448 131.576 20.5964 132.289 20.1484C133.008 19.6953 133.831 19.4687 134.758 19.4687C135.685 19.4687 136.505 19.6927 137.219 20.1406C137.938 20.5833 138.492 21.224 138.883 22.0625C139.273 22.8958 139.471 23.8672 139.477 24.9766V25.6094ZM137.5 25.0156C137.5 23.7552 137.26 22.7891 136.781 22.1172C136.307 21.4453 135.633 21.1094 134.758 21.1094C133.904 21.1094 133.234 21.4453 132.75 22.1172C132.271 22.7839 132.026 23.7292 132.016 24.9531V25.6094C132.016 26.8594 132.258 27.8255 132.742 28.5078C133.232 29.1901 133.909 29.5312 134.773 29.5312C135.648 29.5312 136.32 29.1979 136.789 28.5312C137.263 27.8646 137.5 26.8906 137.5 25.6094V25.0156ZM150.141 19.625V31H148.172V21.2187H144.688L144.484 25.6172C144.406 26.9922 144.237 28.0599 143.977 28.8203C143.721 29.5755 143.349 30.1276 142.859 30.4766C142.37 30.8255 141.714 31 140.891 31H140.391V29.4219L140.703 29.3984C141.156 29.3568 141.505 29.1979 141.75 28.9219C142 28.6458 142.188 28.2292 142.313 27.6719C142.443 27.1094 142.534 26.2839 142.586 25.1953L142.805 19.625H150.141ZM154.469 23.9766H156.797C157.63 23.9766 158.357 24.1198 158.977 24.4062C159.596 24.6927 160.068 25.099 160.391 25.625C160.714 26.151 160.875 26.7604 160.875 27.4531C160.875 28.5156 160.513 29.3698 159.789 30.0156C159.07 30.6615 158.089 30.9896 156.844 31H152.492V19.625H154.469V23.9766ZM154.469 25.5625V29.4219H156.789C157.456 29.4219 157.974 29.2422 158.344 28.8828C158.719 28.5182 158.906 28.0365 158.906 27.4375C158.906 26.8646 158.724 26.4115 158.359 26.0781C157.995 25.7448 157.49 25.5729 156.844 25.5625H154.469ZM164.602 19.625V29.4219H168.07V19.625H170.039V29.4219H173.484V19.625H175.453V31H162.617V19.625H164.602ZM184.453 25.9219H179.781V29.4219H185.242V31H177.805V19.625H185.188V21.2187H179.781V24.3594H184.453V25.9219Z" fill="white"/>
</svg>
