<svg width="219" height="50" viewBox="0 0 219 50" fill="none" xmlns="http://www.w3.org/2000/svg">
<rect width="219" height="50" rx="3" fill="#FB565A"/>
<path d="M54.6328 31H52.664V25.9453H47.5781V31H45.6015V19.625H47.5781V24.3594H52.664V19.625H54.6328V31ZM63.4844 28.3516H59.0781L58.1562 31H56.1015L60.3984 19.625H62.1719L66.4765 31H64.414L63.4844 28.3516ZM59.6328 26.7578H62.9297L61.2812 22.0391L59.6328 26.7578ZM76.7734 31H74.8047V21.2187H69.7969V31H67.8281V19.625H76.7734V31ZM86.1328 19.625H88.1094V31H86.1328V22.8984L81.1406 31H79.1641V19.625H81.1406V27.7344L86.1328 19.625ZM92.4922 19.625V29.4219H95.9609V19.625H97.9297V29.4219H101.375V19.625H103.344V31H90.5078V19.625H92.4922ZM112.664 19.625H114.641V31H112.664V22.8984L107.672 31H105.695V19.625H107.672V27.7344L112.664 19.625ZM124.992 21.2187H121.445V31H119.484V21.2187H115.969V19.625H124.992V21.2187ZM133.141 25.9219H128.469V29.4219H133.93V31H126.492V19.625H133.875V21.2187H128.469V24.3594H133.141V25.9219ZM148.555 31H146.586V25.9453H141.5V31H139.523V19.625H141.5V24.3594H146.586V19.625H148.555V31ZM157.406 28.3516H153L152.078 31H150.023L154.32 19.625H156.094L160.398 31H158.336L157.406 28.3516ZM153.555 26.7578H156.852L155.203 22.0391L153.555 26.7578ZM164.258 19.625L167.539 28.3437L170.813 19.625H173.367V31H171.398V27.25L171.594 22.2344L168.234 31H166.82L163.469 22.2422L163.664 27.25V31H161.695V19.625H164.258Z" fill="white"/>
</svg>
